<svg width="42" height="42" viewBox="0 0 42 42" fill="none" xmlns="http://www.w3.org/2000/svg">
<path d="M38.2232 9.97283C38.2224 9.0729 37.7403 8.24335 36.9652 7.80803C36.955 7.80229 36.9448 7.79688 36.9345 7.79154L22.184 0.313568C21.449 -0.100508 20.5747 -0.104691 19.8366 0.302248L5.15945 7.73913C4.31769 8.14943 3.77417 9.02565 3.77417 9.97356V22.1347C3.77417 26.5466 5.40144 30.7925 8.4801 34.4136C11.5032 37.9693 15.7082 40.6286 20.3216 41.9023C20.5426 41.9673 20.7706 42 20.9988 42C21.2123 42 21.426 41.9715 21.6347 41.9145C26.2654 40.6455 30.4863 37.9817 33.52 34.4136C36.5986 30.7926 38.2259 26.5466 38.2259 22.1345L38.2232 9.97283ZM5.41472 12.0041L11.0207 13.7865C11.1775 13.8364 11.3456 13.838 11.5032 13.7911L17.5347 11.9967C18.3059 11.7673 18.7085 11.7831 19.1911 12.0617L19.3409 12.1482L17.2347 13.3643C16.0495 14.0485 15.6419 15.5696 16.3262 16.7549C16.9883 17.9015 18.4258 18.3031 19.6699 17.6884C20.2752 17.3894 21.146 16.997 21.8219 16.7357C22.3914 17.0791 23.6381 17.8348 24.9399 18.624C27.8643 20.3966 31.5039 22.6027 32.0684 22.9287C32.2576 23.038 32.3934 23.2159 32.4507 23.4299C32.5081 23.6438 32.4795 23.8659 32.3703 24.0551C32.1429 24.4489 31.6376 24.5842 31.2439 24.357L29.8148 23.5318C29.8145 23.5317 29.8141 23.5314 29.8138 23.5313L29.8135 23.5311L24.5063 20.467C24.1139 20.2405 23.6123 20.3749 23.3858 20.7673C23.1592 21.1596 23.2937 21.6613 23.686 21.8878L28.9929 24.9517C28.993 24.9517 28.9931 24.9517 28.9932 24.9518L28.994 24.9522C29.3868 25.1799 29.5215 25.6847 29.2945 26.078C29.1852 26.2671 29.0072 26.4029 28.7933 26.4603C28.5792 26.5176 28.3572 26.489 28.1681 26.3798L27.2281 25.8371C27.2279 25.837 27.2276 25.8369 27.2273 25.8367L27.227 25.8366L22.5678 23.1466C22.1754 22.9202 21.6738 23.0545 21.4473 23.4469C21.2207 23.8392 21.3552 24.3409 21.7475 24.5674L26.4059 27.2568C26.4061 27.2569 26.4063 27.257 26.4064 27.2572C26.8 27.4846 26.9353 27.9899 26.708 28.3835C26.5988 28.5727 26.4208 28.7084 26.2068 28.7658C25.9929 28.8231 25.7708 28.7945 25.5816 28.6853L23.9787 27.7599L21.0751 26.0836C20.8676 25.7438 20.5748 25.4497 20.2065 25.237C19.8099 25.0079 19.3662 24.8969 18.9193 24.9079C18.8465 24.1395 18.416 23.4163 17.6982 23.0019C17.2679 22.7535 16.7831 22.6433 16.2964 22.6783C16.2828 22.5943 16.2649 22.5104 16.2425 22.427C16.0718 21.7897 15.6646 21.258 15.0959 20.9297C14.5271 20.6013 13.8632 20.5145 13.2258 20.6853C12.8016 20.799 12.4242 21.0174 12.1225 21.3184C11.9348 21.0805 11.7 20.8738 11.4221 20.7134C10.245 20.0337 8.73439 20.4384 8.05462 21.6157L7.7302 22.1776L5.41472 20.8408V12.0041ZM10.904 23.2596L9.97161 24.8746C9.7439 25.2672 9.23886 25.4021 8.84586 25.1752C8.65662 25.0659 8.52087 24.8879 8.46353 24.674C8.40619 24.46 8.43474 24.238 8.544 24.0488L9.47518 22.436C9.58444 22.2468 9.76244 22.111 9.97637 22.0537C10.1904 21.9963 10.4124 22.0248 10.6017 22.1342C10.9949 22.3611 11.1306 22.866 10.904 23.2596ZM11.0429 26.3L11.3917 25.696C11.3918 25.6958 11.3918 25.6957 11.3919 25.6956L12.3251 24.0791L13.149 22.6522C13.2582 22.463 13.4362 22.3273 13.6501 22.2699C13.864 22.2125 14.0861 22.2411 14.2754 22.3504C14.6692 22.5777 14.8046 23.0831 14.5773 23.4768L14.3305 23.9042C14.3305 23.9043 14.3304 23.9043 14.3304 23.9044L12.7179 26.6974C12.7177 26.6978 12.7174 26.6982 12.7172 26.6986L12.4712 27.1246C12.2439 27.5183 11.7386 27.6538 11.3448 27.4264C10.951 27.1991 10.8156 26.6938 11.0429 26.3V26.3ZM14.1385 27.5181L14.1387 27.5177C14.1388 27.5176 14.1388 27.5175 14.1389 27.5174L15.7511 24.7249C15.7512 24.7248 15.7513 24.7246 15.7514 24.7245C15.7514 24.7245 15.7514 24.7245 15.7514 24.7244L15.7515 24.7242C15.8608 24.5352 16.0387 24.3995 16.2526 24.3423C16.4666 24.2849 16.6885 24.3134 16.8779 24.4227C17.2716 24.65 17.407 25.1554 17.1797 25.5492L16.839 26.1393L15.908 27.7518C15.908 27.7519 15.9079 27.7521 15.9078 27.7522L15.567 28.3424C15.3398 28.7361 14.8345 28.8715 14.4406 28.6441C14.047 28.4168 13.9115 27.9118 14.1385 27.5181V27.5181ZM17.3281 28.5731L17.3285 28.5724L18.2597 26.9595C18.369 26.7704 18.5469 26.6346 18.7609 26.5773C18.9747 26.5198 19.1968 26.5485 19.3862 26.6578C19.7799 26.8851 19.9153 27.3904 19.688 27.7841L18.7569 29.3969C18.5296 29.7907 18.0242 29.9261 17.6304 29.6988C17.4412 29.5895 17.3055 29.4115 17.248 29.1976C17.1908 28.9839 17.2193 28.7622 17.3281 28.5731V28.5731ZM21.1088 28.6044C21.199 28.4482 21.2695 28.2859 21.3222 28.1206L23.1576 29.1803C23.1577 29.1804 23.1579 29.1805 23.1581 29.1806C23.1581 29.1806 23.1581 29.1806 23.1582 29.1807L23.1591 29.1812C23.552 29.4089 23.6868 29.9136 23.4598 30.3069C23.2324 30.7007 22.727 30.836 22.3333 30.6088L20.5469 29.5775L21.1088 28.6044ZM12.6393 29.0132C12.8472 29.4395 13.1796 29.8104 13.6203 30.0649C14.338 30.4793 15.1797 30.4906 15.8814 30.1694C16.0955 30.5629 16.4135 30.8907 16.81 31.1196C17.1882 31.3379 17.6086 31.4494 18.0353 31.4494C18.2502 31.4494 18.4667 31.4211 18.6802 31.3639C19.0132 31.2747 19.317 31.1203 19.5785 30.9126L21.5131 32.0296C21.9003 32.2531 22.3235 32.3593 22.7414 32.3593C23.594 32.3593 24.4245 31.9171 24.8806 31.1273C25.033 30.8632 25.1309 30.5824 25.1777 30.2979C25.6415 30.4611 26.1443 30.481 26.6313 30.3505C27.2686 30.1797 27.8003 29.7725 28.1287 29.2038C28.3252 28.8636 28.4309 28.4956 28.4537 28.1277C28.7072 28.14 28.9646 28.1128 29.2177 28.0451C29.855 27.8743 30.3868 27.4671 30.7151 26.8984C30.8755 26.6207 30.9754 26.3243 31.0191 26.0247C31.6058 26.1814 32.2237 26.1117 32.7543 25.8485C32.184 27.749 31.1774 29.5707 29.7703 31.2257C27.5274 33.8639 24.4206 35.8979 21.0003 36.972C17.5794 35.8975 14.4725 33.8636 12.2298 31.2258C11.5862 30.4688 11.0276 29.68 10.5555 28.8641C11.217 29.2337 11.9792 29.2657 12.6393 29.0132V29.0132ZM33.5172 22.0255C33.3402 21.8216 33.1289 21.6466 32.8886 21.5079C32.3393 21.1907 28.5541 18.8963 25.7903 17.221C24.8358 16.6424 23.9728 16.1192 23.3474 15.7408C23.0341 15.5512 22.7804 15.3978 22.6045 15.2918C22.2171 15.0585 22.1366 15.01 21.9057 15.01C21.8138 15.01 21.7225 15.0254 21.6357 15.0557C20.8408 15.3328 19.6828 15.8522 18.9432 16.2175C18.5535 16.4099 18.0018 16.3762 17.7469 15.9346C17.5149 15.5327 17.653 15.017 18.0549 14.785L22.7717 12.0617C23.2544 11.7831 23.6569 11.7673 24.428 11.9967L30.4596 13.7911C30.6121 13.8364 30.7744 13.8364 30.9269 13.7912L36.583 12.1124L36.5848 20.8759L33.5172 22.0255ZM5.88072 9.21267C5.8854 9.21038 5.88999 9.20808 5.89459 9.20578L20.5921 1.75857C20.6025 1.75332 20.6127 1.74782 20.6229 1.74208C20.741 1.67572 20.8703 1.64266 20.9997 1.64266C21.1324 1.64266 21.2652 1.67744 21.3859 1.747C21.3986 1.7543 21.4114 1.76119 21.4244 1.76784L36.1743 9.24557C36.4262 9.39313 36.5823 9.67105 36.5826 9.97381L36.5827 10.4012L34.9371 10.8896C34.9116 10.6103 34.7461 10.3609 34.493 10.2324L21.3699 3.5795C21.1367 3.46138 20.8614 3.4613 20.6282 3.57942L17.3595 5.23564C16.9555 5.44047 16.7939 5.93403 16.9986 6.33809C17.2033 6.74216 17.6971 6.90368 18.1011 6.69902L20.9988 5.23064L33.1862 11.4092L30.6939 12.149L24.8959 10.4242C24.0153 10.1623 23.0491 10.0072 21.9515 10.641L20.9815 11.2011L20.0114 10.641C18.9137 10.0073 17.9476 10.1624 17.0669 10.4242L11.2772 12.1466L8.86415 11.3793L11.5145 10.0364C11.9185 9.83157 12.0801 9.33801 11.8754 8.93394C11.6706 8.52979 11.177 8.3682 10.7729 8.57302L7.50479 10.229C7.27503 10.3454 7.11778 10.5616 7.07111 10.8092L5.41472 10.2825V9.97348C5.41472 9.64808 5.59765 9.34941 5.88072 9.21267V9.21267ZM32.27 33.351C29.4479 36.6702 25.5168 39.1496 21.2015 40.3321C21.0613 40.3705 20.9203 40.369 20.7823 40.3278C20.7767 40.326 20.7711 40.3244 20.7655 40.3229C16.463 39.1366 12.5438 36.6605 9.72996 33.351C7.04954 30.1982 5.56992 26.5423 5.42719 22.7422L6.94233 23.6171C6.7699 24.0886 6.74579 24.6016 6.87892 25.0986C7.01353 25.6007 7.29537 26.0369 7.68689 26.3602C8.32736 28.476 9.43351 30.4696 10.9798 32.2884C13.4765 35.2249 16.9514 37.472 20.7646 38.6157C20.8414 38.6387 20.9208 38.6502 21.0002 38.6502C21.0796 38.6502 21.159 38.6386 21.2359 38.6157C25.0486 37.4722 28.5233 35.2251 31.0202 32.2883C33.3133 29.5912 34.6487 26.4782 34.9001 23.2593L36.5767 22.631C36.4589 26.471 34.9766 30.1676 32.27 33.351V33.351Z" fill="#4E74FF"/>
<path d="M14.4373 8.45633C14.8903 8.45633 15.2576 8.08908 15.2576 7.63602C15.2576 7.18296 14.8903 6.8157 14.4373 6.8157H14.4367C13.9836 6.8157 13.6167 7.18296 13.6167 7.63602C13.6167 8.08908 13.9842 8.45633 14.4373 8.45633Z" fill="#4E74FF"/>
</svg>
