<svg width="42" height="42" viewBox="0 0 42 42" fill="none" xmlns="http://www.w3.org/2000/svg">
<g clip-path="url(#clip0)">
<path d="M30.0618 19.6252C26.2612 16.4521 24.15 12.1339 23.0482 9.0702C22.3494 7.12704 19.6011 7.12417 18.9011 9.0702C17.7994 12.1339 15.6883 16.452 11.8875 19.6252C10.645 20.6625 10.4783 22.5021 11.5238 23.7242C14.399 27.0847 15.2161 31.1296 15.2716 31.4192L16.4947 41.2808C16.5456 41.6916 16.8947 42.0001 17.3088 42.0001H24.6406C25.0546 42.0001 25.4038 41.6916 25.4547 41.2808L26.6778 31.4196C26.7342 31.1254 27.5518 27.083 30.4255 23.7243C31.4693 22.504 31.3062 20.6641 30.0618 19.6252ZM23.9158 40.3594H18.0336L17.011 32.114H24.9384L23.9158 40.3594ZM20.9747 24.4602C20.1906 24.4602 19.5528 23.8225 19.5528 23.0384C19.5528 22.2543 20.1906 21.6166 20.9747 21.6166C21.7587 21.6166 22.3965 22.2544 22.3965 23.0384C22.3965 23.8224 21.7587 24.4602 20.9747 24.4602ZM29.1788 22.6576C26.6177 25.651 25.5615 29.0492 25.208 30.4734H21.795V25.9884C23.0865 25.6288 24.0372 24.4429 24.0372 23.0384C24.0372 21.3497 22.6634 19.9759 20.9747 19.9759C19.286 19.9759 17.9123 21.3498 17.9123 23.0384C17.9123 24.4429 18.8629 25.6288 20.1544 25.9884V30.4734H16.7415C16.3878 29.0492 15.3316 25.651 12.7706 22.6576C12.3149 22.125 12.4054 21.33 12.9391 20.8846C17.0223 17.4756 19.2746 12.8802 20.4451 9.62539C20.6245 9.1268 21.3245 9.125 21.5044 9.62539C22.675 12.8802 24.9274 17.4757 29.0104 20.8846C29.5435 21.3297 29.6351 22.1242 29.1788 22.6576Z" fill="#4E74FF"/>
<path d="M38.0037 0.538699C36.8997 0.538699 35.9533 1.22399 35.5657 2.19122H23.9862V1.92618C23.9862 0.864117 23.1222 0 22.0601 0H19.8893C18.8273 0 17.9632 0.864117 17.9632 1.92618V2.19122H6.43464C6.04712 1.22399 5.10065 0.538699 3.99667 0.538699C2.54882 0.538699 1.37085 1.71659 1.37085 3.16444C1.37085 4.61229 2.54874 5.79018 3.99667 5.79018C5.21393 5.79018 6.24014 4.95748 6.53619 3.83184H14.6534C11.671 5.31997 9.36611 7.7787 8.04885 10.7014H7.61326C6.55121 10.7014 5.68717 11.5655 5.68717 12.6276V14.7983C5.68717 15.8603 6.55121 16.7244 7.61326 16.7244H9.78406C10.8461 16.7244 11.7102 15.8603 11.7102 14.7983V12.6276C11.7102 11.5947 10.893 10.7494 9.87117 10.7036C11.4796 7.64006 14.3645 5.23548 17.98 4.34643C18.1028 5.29102 18.9119 6.02314 19.8894 6.02314H22.0602C23.0376 6.02314 23.8467 5.29118 23.9696 4.34675C27.4363 5.20209 30.4147 7.54195 32.0776 10.7037C31.0562 10.7498 30.2393 11.595 30.2393 12.6276V14.7984C30.2393 15.8604 31.1033 16.7245 32.1654 16.7245H34.3362C35.3982 16.7245 36.2623 15.8604 36.2623 14.7984V12.6276C36.2623 11.5656 35.3982 10.7015 34.3362 10.7015H33.9002C32.6074 7.83357 30.3319 5.34671 27.2964 3.83193H35.4642C35.7602 4.95756 36.7864 5.79026 38.0037 5.79026C39.4516 5.79026 40.6295 4.61237 40.6295 3.16452C40.6295 1.71667 39.4516 0.538699 38.0037 0.538699ZM10.0695 12.6276V14.7983C10.0695 14.9557 9.94139 15.0838 9.78406 15.0838H7.61326C7.45585 15.0838 7.3278 14.9557 7.3278 14.7983V12.6276C7.3278 12.4701 7.45593 12.342 7.61326 12.342H9.78406C9.94139 12.342 10.0695 12.4701 10.0695 12.6276ZM34.6217 12.6276V14.7983C34.6217 14.9557 34.4936 15.0838 34.3363 15.0838H32.1655C32.008 15.0838 31.88 14.9557 31.88 14.7983V12.6276C31.88 12.4701 32.0081 12.342 32.1655 12.342H34.3363C34.4936 12.342 34.6217 12.4701 34.6217 12.6276ZM3.99667 4.14955C3.45346 4.14955 3.01147 3.70765 3.01147 3.16444C3.01147 2.62123 3.45346 2.17932 3.99667 2.17932C4.53988 2.17932 4.98178 2.62123 4.98178 3.16444C4.98178 3.70765 4.53988 4.14955 3.99667 4.14955ZM22.3456 4.09689C22.3456 4.2543 22.2175 4.38244 22.0601 4.38244H19.8893C19.7319 4.38244 19.6039 4.2543 19.6039 4.09689V1.92618C19.6039 1.76876 19.732 1.64062 19.8893 1.64062H22.0601C22.2175 1.64062 22.3456 1.76876 22.3456 1.92618V4.09689ZM38.0037 4.14955C37.4605 4.14955 37.0186 3.70765 37.0186 3.16444C37.0186 2.62123 37.4605 2.17932 38.0037 2.17932C38.5469 2.17932 38.9889 2.62123 38.9889 3.16444C38.9889 3.70765 38.5469 4.14955 38.0037 4.14955Z" fill="#4E74FF"/>
<path d="M19.9481 15.496C19.5366 15.3062 19.0493 15.4858 18.8595 15.8972C17.3725 19.1204 14.8684 20.9105 14.8296 20.9379C14.4588 21.1971 14.3678 21.7079 14.6266 22.0793C14.8855 22.4509 15.3967 22.5424 15.7687 22.2832C15.8861 22.2014 18.6641 20.2369 20.3492 16.5845C20.539 16.1731 20.3594 15.6858 19.9481 15.496Z" fill="#4E74FF"/>
<path d="M20.7539 12.8926C20.3009 12.8926 19.9336 13.2598 19.9336 13.7129C19.9336 14.1659 20.3009 14.5332 20.7539 14.5332H20.756C21.2089 14.5332 21.5752 14.1659 21.5752 13.7129C21.5752 13.2598 21.2069 12.8926 20.7539 12.8926Z" fill="#4E74FF"/>
</g>
<defs>
<clipPath id="clip0">
<rect width="42" height="42" fill="white"/>
</clipPath>
</defs>
</svg>
