<svg width="598" height="450" viewBox="0 0 598 450" fill="none" xmlns="http://www.w3.org/2000/svg">
<g clip-path="url(#clip0)">
<path d="M551.694 302.823C547.864 317.919 541.221 332.985 535.401 346.421C513.288 397.156 475.973 431.852 417.548 424.76C389.391 421.334 361.831 411.878 333.479 412.79C306.354 413.628 280.53 423.847 254.766 432.36C206.889 448.205 153.88 458.349 106.527 440.903C59.1733 423.458 22.3528 369.791 39.1995 322.213C52.3059 285.078 93.2857 260.167 97.5498 221.028C103.16 170.158 42.9549 126.276 55.6573 76.6333C61.0584 55.732 78.4438 40.1719 96.8615 28.9507C139.173 3.08209 191.194 -5.46098 239.805 3.33644C286.036 11.6401 324.502 50.5702 371.093 52.3656C401.136 53.5027 430.041 36.4315 459.965 39.2443C496.98 42.8201 524.12 75.601 541.43 108.531C547.003 118.812 551.664 129.56 555.36 140.654C562.552 163.262 564.012 187.303 559.609 210.614C555.12 234.553 555.659 256.995 554.971 281.547C554.668 288.738 553.57 295.874 551.694 302.823Z" fill="#F3F7FF"/>
<path d="M231.053 399.759C229.227 400.328 227.178 401.255 226.714 403.065C232.459 406.716 239.566 407.554 246.358 407.374C253.151 407.195 259.929 405.998 266.736 405.953C275.713 405.953 285.827 407.554 293.039 402.108C289.836 400.08 286.158 398.924 282.371 398.757C283.703 390.378 236.379 398.098 231.053 399.759Z" fill="#E2ECFF"/>
<path d="M115.713 299.95C113.29 299.95 109.938 301.177 110.537 303.526L221.148 312.503C234.164 313.565 247.196 314.612 260.272 314.612C280.022 314.612 299.681 312.189 319.386 311.051C337.938 309.989 356.52 310.064 375.088 310.154C392.278 310.244 413.419 313.341 430.116 308.837C432.63 308.164 435.158 306.144 434.994 303.556C434.919 302.359 434.291 301.117 434.754 300.01C435.024 299.467 435.451 299.018 435.981 298.723C439.408 296.614 443.776 298.259 447.726 299.127C454.013 300.494 460.578 299.659 466.323 296.763C467.4 296.315 468.318 295.554 468.957 294.579C469.261 294.086 469.372 293.498 469.267 292.928C469.162 292.358 468.848 291.848 468.388 291.497C467.923 291.267 467.411 291.149 466.892 291.153L433.034 288.519C431.784 288.326 430.505 288.439 429.308 288.848C427.977 289.432 428.052 290.988 426.974 291.631C425.224 292.664 421.244 292.11 419.239 292.23C414.107 292.514 408.976 292.798 403.829 293.053C393.585 293.541 383.321 293.955 373.038 294.295C352.092 294.998 331.041 295.417 310.05 295.791C268.531 296.464 226.998 296.823 185.494 298.424C162.229 299.292 138.979 299.441 115.713 299.95Z" fill="#E2ECFF"/>
<path d="M200.77 69.4368C198.823 68.7605 196.697 68.8136 194.786 69.5864C193.553 70.0261 192.426 70.7193 191.478 71.6212C190.529 72.5232 189.781 73.6139 189.28 74.823C189.27 74.9801 189.227 75.1334 189.153 75.2725C189.079 75.4116 188.976 75.5334 188.852 75.6297C188.727 75.726 188.583 75.7946 188.43 75.8309C188.277 75.8672 188.118 75.8704 187.963 75.8403C185.786 75.8353 183.685 76.6406 182.068 78.0995C180.183 79.8201 180.183 81.9297 179.929 84.3984C179.62 84.2431 179.279 84.1623 178.934 84.1623C178.588 84.1623 178.248 84.2431 177.939 84.3984C177.323 84.7022 176.761 85.1068 176.278 85.5953C175.453 86.2581 174.792 87.103 174.348 88.064C173.75 89.6948 174.423 91.4902 174.453 93.2257C174.463 93.3035 174.457 93.3826 174.433 93.4575C174.41 93.5325 174.371 93.6015 174.318 93.6596C174.257 93.6859 174.191 93.6995 174.124 93.6995C174.057 93.6995 173.991 93.6859 173.929 93.6596C173.465 93.5698 173.046 93.3304 172.583 93.2856C172.04 93.2907 171.516 93.4846 171.101 93.8342C170.686 94.1837 170.406 94.6669 170.308 95.2006C170.132 96.2723 170.188 97.3694 170.473 98.4174C170.751 99.4661 170.72 100.573 170.383 101.604C170.025 102.282 169.554 102.894 168.992 103.415C167.369 104.927 166.313 106.949 166 109.145C165.911 110.206 166.197 111.265 166.807 112.137C167.121 112.568 167.541 112.91 168.026 113.131C168.511 113.351 169.045 113.442 169.575 113.394C172.059 113.065 172.927 109.579 175.291 108.756C177.655 107.933 180.303 105.15 181.829 102.951C183.056 101.185 184.253 99.1355 186.317 98.4623C186.997 98.3178 187.652 98.0759 188.262 97.7441C188.668 97.4272 189.005 97.0299 189.25 96.5771C190.105 95.3165 190.766 93.9346 191.21 92.4776C191.958 89.605 191.21 86.3733 192.601 83.7251C192.999 82.9654 193.552 82.2982 194.225 81.7671C194.898 81.236 195.675 80.8529 196.506 80.643C197.209 80.4635 198.002 80.4186 198.646 80.2241C199.459 79.9892 200.228 79.6201 200.92 79.1319C201.83 78.6086 202.613 77.8906 203.213 77.0293C203.813 76.1679 204.215 75.1846 204.391 74.1497C204.526 72.0401 202.626 70.1549 200.77 69.4368Z" fill="#FE8A35"/>
<path d="M206.889 72.9827C207.637 73.2712 208.257 73.817 208.638 74.5218C209.019 75.2266 209.137 76.0443 208.969 76.8278C208.713 77.4614 208.331 78.0365 207.847 78.5185L205.139 81.5108L204.017 77.3515C203.901 76.571 203.514 75.8561 202.925 75.3317C202.54 75.1112 202.104 74.9952 201.66 74.9952C201.217 74.9952 200.781 75.1112 200.396 75.3317C199.603 75.7356 198.9 76.364 198.197 76.8278C198.002 76.9475 197.733 77.0822 197.523 76.9625C197.314 76.8428 197.284 76.4089 197.389 76.1097C198.675 72.5488 203.598 71.5613 206.889 72.9827Z" fill="#FE8A35"/>
<path d="M208.73 185.539C208.813 186.939 209.278 188.29 210.077 189.444C211.289 190.94 213.309 191.688 214.984 192.78C215.157 192.868 215.308 192.992 215.427 193.145C215.546 193.297 215.63 193.474 215.673 193.663C215.663 193.845 215.599 194.021 215.49 194.167C215.381 194.313 215.231 194.424 215.059 194.486C214.704 194.586 214.332 194.612 213.967 194.561C212.258 194.292 210.534 194.128 208.805 194.067C207.937 194.067 206.935 194.157 206.381 193.483C206.025 192.913 205.902 192.227 206.037 191.568C206.191 189.094 205.989 186.61 205.439 184.192C205.255 183.602 205.189 182.982 205.244 182.367C205.3 182.082 205.43 181.817 205.62 181.598C205.81 181.379 206.054 181.214 206.328 181.119C206.602 181.023 206.896 181.002 207.181 181.055C207.466 181.109 207.732 181.236 207.952 181.424C208.94 182.277 208.611 184.387 208.73 185.539Z" fill="#FCBDBA"/>
<path d="M181.051 194.8C180.848 196.187 181.024 197.604 181.56 198.9C182.443 200.68 184.283 201.742 185.704 203.149C185.858 203.266 185.983 203.418 186.069 203.592C186.154 203.766 186.198 203.957 186.198 204.151C186.154 204.327 186.057 204.486 185.921 204.606C185.785 204.726 185.615 204.802 185.435 204.824C185.07 204.862 184.702 204.816 184.358 204.69C182.732 204.096 181.073 203.597 179.39 203.194C178.538 203.044 177.535 202.894 177.131 202.146C176.886 201.521 176.886 200.826 177.131 200.201C177.781 197.803 178.083 195.324 178.029 192.84C177.968 192.226 178.029 191.605 178.208 191.015C178.321 190.748 178.501 190.514 178.732 190.338C178.962 190.163 179.235 190.05 179.522 190.012C179.81 189.975 180.102 190.013 180.371 190.123C180.639 190.233 180.873 190.412 181.051 190.641C181.904 191.643 181.156 193.648 181.051 194.8Z" fill="#FCBDBA"/>
<path d="M175.604 127.473C175.604 127.473 189.878 148.658 199.229 154.987C199.049 157.106 199.094 159.237 199.364 161.346C199.842 164.772 201.503 167.779 202.042 171.146L203.837 182.472C203.912 182.98 204.061 183.594 204.555 183.773C204.852 183.868 205.171 183.868 205.468 183.773L209.418 182.696C209.181 175.891 209.326 169.078 209.852 162.288C210.175 159.543 210.246 156.773 210.061 154.015C209.403 148.03 204.495 142.689 201.084 137.886C199.034 134.984 196.835 130.645 193.962 128.445C191.569 126.62 188.187 127.488 185.18 127.787C182.925 128.002 180.649 127.84 178.447 127.308C177.997 127.097 177.501 127.002 177.005 127.031C176.509 127.059 176.027 127.211 175.604 127.473Z" fill="url(#paint0_linear)"/>
<path d="M170.174 127.338C170.174 127.338 175.725 152.279 182.143 161.585C181.21 163.501 180.474 165.506 179.944 167.57C179.589 169.259 179.384 170.976 179.33 172.702L178.044 193.528C180.033 193.633 182.024 193.379 183.924 192.78L191.225 174.422C192.619 171.498 193.442 168.334 193.649 165.101C193.649 158.847 187.664 136.016 186.961 134.864C185.39 132.275 181.934 131.871 179.031 131.034C176.852 130.418 174.793 129.436 172.942 128.131C172.029 127.563 171.206 127.009 170.174 127.338Z" fill="url(#paint1_linear)"/>
<path d="M221.417 107.918C224.459 109.322 227.835 109.84 231.157 109.414C232.132 109.146 233.153 109.095 234.15 109.265C233.716 109.878 233.297 110.761 233.91 111.284C234.098 111.407 234.315 111.479 234.539 111.494C235.346 111.598 236.166 111.511 236.933 111.239C237.295 111.06 237.696 110.973 238.1 110.985C238.456 111.074 238.763 111.3 238.953 111.613C239.144 111.927 239.203 112.304 239.117 112.661C238.905 113.373 238.436 113.981 237.8 114.366C236.773 115.047 235.583 115.442 234.352 115.51C233.121 115.578 231.895 115.318 230.798 114.755C230.17 114.411 229.586 113.977 228.943 113.633C227.705 113.069 226.397 112.677 225.053 112.466C221.12 111.652 217.254 110.542 213.488 109.145C212.917 109.009 212.38 108.759 211.91 108.409C211.439 108.059 211.044 107.617 210.75 107.11C209.987 105.225 211.393 102.068 213.637 103.295C216.241 104.806 218.59 106.751 221.417 107.918Z" fill="#FCBDBA"/>
<path d="M202.836 97.1756C207.279 100.08 212.234 102.111 217.438 103.16C217.662 103.16 217.932 103.31 217.992 103.534C218.016 103.687 217.978 103.843 217.887 103.968C216.824 106.107 215.481 108.095 213.892 109.878C213.722 110.104 213.502 110.289 213.249 110.417C213 110.489 212.739 110.511 212.482 110.48C212.225 110.449 211.977 110.367 211.753 110.237C208.391 108.891 205.1 107.394 201.878 105.749C199.011 104.491 196.456 102.616 194.397 100.258C193.37 99.0338 192.762 97.5133 192.662 95.9188C192.662 94.1533 194.277 90.9815 196.507 91.8493C197.509 92.2383 198.392 93.4801 199.155 94.1833C200.319 95.2552 201.549 96.2545 202.836 97.1756Z" fill="#4E74FF"/>
<path d="M202.836 97.1756C207.279 100.08 212.234 102.111 217.438 103.16C217.662 103.16 217.932 103.31 217.992 103.534C218.016 103.687 217.978 103.843 217.887 103.968C216.824 106.107 215.481 108.095 213.892 109.878C213.722 110.104 213.502 110.289 213.249 110.417C213 110.489 212.739 110.511 212.482 110.48C212.225 110.449 211.977 110.367 211.753 110.237C208.391 108.891 205.1 107.394 201.878 105.749C199.011 104.491 196.456 102.616 194.397 100.258C193.37 99.0338 192.762 97.5133 192.662 95.9188C192.662 94.1533 194.277 90.9815 196.507 91.8493C197.509 92.2383 198.392 93.4801 199.155 94.1833C200.319 95.2552 201.549 96.2545 202.836 97.1756Z" fill="url(#paint2_linear)"/>
<path d="M265.464 88.2585C266.263 89.2666 266.741 90.492 266.833 91.775C266.926 93.0581 266.63 94.3394 265.984 95.452C265.339 96.5645 264.373 97.4567 263.212 98.0124C262.052 98.568 260.751 98.7613 259.48 98.5671C259.48 98.5671 252.403 98.7316 254.004 105.405L267.469 122.55L250.323 136.016C243.65 137.617 243.486 130.54 243.486 130.54C243.669 129.27 243.467 127.974 242.906 126.819C242.345 125.665 241.451 124.705 240.339 124.064C239.227 123.423 237.948 123.13 236.668 123.223C235.388 123.316 234.165 123.79 233.158 124.585C232.15 125.38 231.404 126.459 231.015 127.682C230.627 128.905 230.614 130.217 230.978 131.447C231.343 132.678 232.068 133.771 233.06 134.585C234.052 135.4 235.265 135.898 236.543 136.016C242.633 138.021 240.269 143.946 240.269 143.946L223.123 157.411L188.277 113.17L205.259 99.7041C211.932 98.1032 212.096 105.18 212.096 105.18C211.937 106.229 212.042 107.301 212.4 108.3C212.758 109.299 213.359 110.193 214.148 110.902C214.938 111.612 215.891 112.113 216.922 112.363C217.954 112.612 219.031 112.601 220.057 112.331C221.083 112.061 222.026 111.541 222.802 110.816C223.577 110.091 224.159 109.185 224.497 108.179C224.836 107.173 224.918 106.099 224.739 105.053C224.559 104.008 224.122 103.023 223.467 102.188C222.921 101.502 222.242 100.933 221.471 100.517C220.699 100.1 219.852 99.8441 218.979 99.764C212.949 97.7741 215.313 91.7895 215.313 91.7895L232.624 78.1295L246.089 95.2905C246.089 95.2905 252.074 97.6544 254.019 91.565C254.147 90.2899 254.654 89.0824 255.475 88.098C256.296 87.1136 257.392 86.3975 258.623 86.0418C259.855 85.6861 261.164 85.7072 262.383 86.1022C263.603 86.4973 264.676 87.2483 265.464 88.2585Z" fill="#4E74FF"/>
<path d="M265.464 88.2585C266.263 89.2666 266.741 90.492 266.833 91.775C266.926 93.0581 266.63 94.3394 265.984 95.452C265.339 96.5645 264.373 97.4567 263.212 98.0124C262.052 98.568 260.751 98.7613 259.48 98.5671C259.48 98.5671 252.403 98.7316 254.004 105.405L267.469 122.55L250.323 136.016C243.65 137.617 243.486 130.54 243.486 130.54C243.669 129.27 243.467 127.974 242.906 126.819C242.345 125.665 241.451 124.705 240.339 124.064C239.227 123.423 237.948 123.13 236.668 123.223C235.388 123.316 234.165 123.79 233.158 124.585C232.15 125.38 231.404 126.459 231.015 127.682C230.627 128.905 230.614 130.217 230.978 131.447C231.343 132.678 232.068 133.771 233.06 134.585C234.052 135.4 235.265 135.898 236.543 136.016C242.633 138.021 240.269 143.946 240.269 143.946L223.123 157.411L188.277 113.17L205.259 99.7041C211.932 98.1032 212.096 105.18 212.096 105.18C211.937 106.229 212.042 107.301 212.4 108.3C212.758 109.299 213.359 110.193 214.148 110.902C214.938 111.612 215.891 112.113 216.922 112.363C217.954 112.612 219.031 112.601 220.057 112.331C221.083 112.061 222.026 111.541 222.802 110.816C223.577 110.091 224.159 109.185 224.497 108.179C224.836 107.173 224.918 106.099 224.739 105.053C224.559 104.008 224.122 103.023 223.467 102.188C222.921 101.502 222.242 100.933 221.471 100.517C220.699 100.1 219.852 99.8441 218.979 99.764C212.949 97.7741 215.313 91.7895 215.313 91.7895L232.624 78.1295L246.089 95.2905C246.089 95.2905 252.074 97.6544 254.019 91.565C254.147 90.2899 254.654 89.0824 255.475 88.098C256.296 87.1136 257.392 86.3975 258.623 86.0418C259.855 85.6861 261.164 85.7072 262.383 86.1022C263.603 86.4973 264.676 87.2483 265.464 88.2585Z" fill="url(#paint3_linear)"/>
<path d="M208.804 127.278C212.47 130.271 216.285 133.487 220.774 134.265C221.637 134.459 222.531 134.478 223.402 134.321C224.273 134.164 225.104 133.835 225.846 133.353C226.102 133.2 226.31 132.98 226.448 132.715C226.585 132.451 226.646 132.154 226.624 131.857C226.459 131.123 225.561 130.869 224.828 130.734C221.399 130.266 218.107 129.083 215.163 127.263C214.071 126.491 213.036 125.641 212.066 124.72L204.78 118.227C204.691 118.118 204.579 118.031 204.452 117.972C204.325 117.912 204.187 117.882 204.047 117.882C203.747 117.882 203.568 118.227 203.433 118.496C202.981 119.415 202.64 120.384 202.416 121.383C202.191 122.476 202.416 122.625 203.358 123.254C205.244 124.53 207.059 125.872 208.804 127.278Z" fill="#DE9F93"/>
<path d="M212.186 121.802C214.722 124.021 217.835 125.473 221.163 125.992C222.154 126.005 223.129 126.235 224.021 126.665C223.408 127.129 222.749 127.922 223.213 128.535C223.362 128.706 223.553 128.835 223.767 128.909C224.512 129.227 225.321 129.371 226.131 129.328C226.531 129.267 226.94 129.298 227.328 129.418C227.484 129.509 227.621 129.63 227.73 129.774C227.84 129.919 227.92 130.083 227.965 130.258C228.011 130.433 228.022 130.616 227.997 130.795C227.973 130.974 227.913 131.147 227.821 131.303C227.431 131.937 226.808 132.393 226.086 132.575C224.911 132.945 223.658 132.994 222.458 132.715C221.258 132.436 220.154 131.84 219.263 130.989C218.74 130.48 218.306 129.897 217.767 129.403C216.738 128.515 215.59 127.774 214.356 127.204C210.807 125.318 207.406 123.167 204.182 120.77C203.673 120.481 203.228 120.092 202.873 119.627C202.518 119.162 202.261 118.629 202.117 118.062C201.908 116.027 204.137 113.379 205.962 115.204C208.087 117.359 209.807 119.827 212.186 121.802Z" fill="#FCBDBA"/>
<path d="M170.174 130.54C170.442 130.861 170.78 131.117 171.161 131.288C172.667 132.147 174.232 132.897 175.844 133.532C180.034 135.032 184.621 134.995 188.786 133.428C190.453 132.828 192.017 131.975 193.424 130.899C193.958 130.535 194.407 130.061 194.741 129.508C195.138 128.606 195.263 127.607 195.1 126.635C194.726 121.593 194.172 116.386 195.1 111.494C195.398 109.813 195.901 108.175 196.596 106.616C197.808 104.489 198.81 102.249 199.588 99.9286C199.855 98.5023 199.807 97.035 199.448 95.6291C199.089 94.2233 198.427 92.9129 197.509 91.7894C195.564 89.3058 192.003 87.1065 188.861 88.2286C185.232 89.5961 182.084 91.9997 179.809 95.1408C177.329 98.6584 175.364 102.513 173.974 106.586C173.376 108.187 172.792 109.788 172.328 111.434C171.338 115.415 170.697 119.475 170.413 123.568C170.249 125.273 170.099 126.979 169.92 128.685C169.778 129.314 169.869 129.972 170.174 130.54Z" fill="url(#paint4_linear)"/>
<path d="M188.786 133.428C190.453 132.828 192.017 131.975 193.424 130.899C193.958 130.535 194.407 130.061 194.741 129.508C195.138 128.605 195.263 127.607 195.1 126.635C194.726 121.593 194.172 116.386 195.1 111.494C194.501 110.895 193.828 110.357 193.17 109.818C191.674 108.591 189.519 106.167 187.35 106.332C187.873 108.621 188.292 110.955 188.606 113.289C188.921 115.623 188.801 118.047 189.175 120.351C189.671 124.428 189.575 128.555 188.891 132.605C188.827 132.874 188.792 133.15 188.786 133.428Z" fill="#5376F5"/>
<path d="M206.994 113.948C207.111 114.007 207.215 114.089 207.3 114.19C207.385 114.29 207.449 114.406 207.488 114.531C207.492 114.78 207.401 115.021 207.234 115.204C205.874 117.123 204.169 118.772 202.207 120.067C202.017 120.217 201.789 120.311 201.548 120.336C201.272 120.307 201.014 120.185 200.815 119.992C197.823 117.703 194.83 115.504 191.913 113.11C190.026 111.771 188.36 110.145 186.976 108.292C185.958 106.619 185.183 104.811 184.672 102.921C182.891 97.3102 188.277 94.8715 191.883 98.9859C196.641 104.432 200.98 109.743 206.994 113.948Z" fill="url(#paint5_linear)"/>
<path d="M206.261 193.693C206.183 193.507 206.156 193.304 206.182 193.104C206.208 192.904 206.287 192.715 206.411 192.556C206.74 192.242 207.279 192.391 207.697 192.556C208.623 193.004 209.59 193.36 210.585 193.618C211.587 193.882 212.652 193.77 213.577 193.304C214.086 193.005 214.58 192.556 215.163 192.601C215.457 192.645 215.738 192.752 215.986 192.915C216.885 193.381 217.848 193.708 218.844 193.887C219.263 193.923 219.668 194.056 220.026 194.276C220.134 194.353 220.213 194.463 220.25 194.591C220.25 194.89 219.966 195.114 219.682 195.219C216.57 196.431 213.084 195.982 209.762 195.623C209.39 195.571 209.012 195.571 208.64 195.623C208.086 195.728 207.413 196.012 206.949 195.623C206.552 195.052 206.315 194.386 206.261 193.693Z" fill="#473F47"/>
<path d="M176.712 202.221C176.663 202.027 176.664 201.825 176.713 201.631C176.763 201.438 176.86 201.26 176.996 201.114C177.37 200.845 177.879 201.114 178.283 201.278C179.152 201.831 180.068 202.307 181.021 202.7C181.986 203.059 183.048 203.059 184.013 202.7C184.552 202.475 185.09 202.086 185.674 202.206C185.957 202.289 186.221 202.426 186.452 202.61C187.276 203.213 188.19 203.683 189.16 204.001C189.577 204.088 189.967 204.272 190.297 204.54C190.346 204.581 190.385 204.631 190.413 204.688C190.442 204.744 190.458 204.806 190.462 204.869C190.462 205.168 190.133 205.348 189.833 205.423C186.587 206.246 183.19 205.423 179.944 204.6C179.579 204.494 179.201 204.439 178.822 204.435C178.268 204.435 177.565 204.675 177.146 204.166C176.843 203.563 176.694 202.895 176.712 202.221Z" fill="#37446F"/>
<path d="M204.421 83.2463C204.166 84.0692 203.912 84.8921 203.703 85.73C203.465 86.9796 203.135 88.2098 202.715 89.4105C202.502 90.0093 202.162 90.5548 201.717 91.0094C201.273 91.4639 200.736 91.8168 200.142 92.0438C199.536 92.2372 198.879 92.1897 198.308 91.911C197.737 91.6323 197.295 91.1439 197.075 90.5476C196.357 90.7122 196.102 91.5949 196.117 92.343C196.237 93.0749 196.1 93.8258 195.728 94.4675C195.055 95.2605 193.738 94.9314 192.856 94.3628C191.519 93.4623 190.48 92.1854 189.87 90.6938C189.26 89.2022 189.107 87.5632 189.429 85.9843C190.162 82.6479 190.132 78.6531 192.033 75.7655C192.715 74.7911 193.585 73.9621 194.591 73.3268C195.473 72.6813 196.501 72.2649 197.583 72.1149C198.341 72.0705 199.101 72.1309 199.843 72.2945C203.014 72.8331 205.708 73.2969 205.722 76.9325C205.625 79.0927 205.186 81.2238 204.421 83.2463Z" fill="#FCBDBA"/>
<path d="M200.516 77.3665C200.022 77.3665 199.454 77.2468 199.02 77.546C198.586 77.8453 198.556 78.5185 198.287 79.0422C197.763 80.0147 196.432 80.1493 195.429 80.658C194.822 80.983 194.316 81.4692 193.968 82.0632C193.619 82.6572 193.442 83.3358 193.454 84.0244C193.473 83.5839 193.364 83.1472 193.14 82.7676C193.08 82.6777 193.003 82.6009 192.912 82.542C192.822 82.4831 192.72 82.4433 192.613 82.4251C192.507 82.4069 192.398 82.4106 192.293 82.4361C192.188 82.4615 192.089 82.5082 192.003 82.5731C191.868 82.733 191.789 82.9327 191.778 83.1417C191.738 83.5689 191.807 83.9995 191.98 84.3924C192.153 84.7852 192.423 85.1273 192.766 85.3859C192.455 86.0275 191.968 86.5669 191.361 86.9406C190.754 87.3144 190.052 87.5069 189.34 87.4955C188.889 87.5062 188.45 87.3579 188.098 87.0766C187.877 86.849 187.713 86.5721 187.619 86.2686C186.766 83.8748 188.068 81.3163 188.382 78.7878C188.412 77.895 188.558 77.0098 188.816 76.1546C189.093 75.5505 189.473 74.9988 189.938 74.5238C191.335 72.8466 193.183 71.6055 195.265 70.948C197.269 70.3944 201.249 70.6786 202.82 72.2646C203.177 72.7184 203.402 73.2613 203.471 73.8342C203.541 74.407 203.452 74.988 203.215 75.514C202.977 76.0399 202.6 76.4907 202.124 76.8173C201.648 77.1439 201.092 77.3339 200.516 77.3665Z" fill="#FE8A35"/>
<path d="M199.633 304.498V276.505C203.313 268.516 210.57 273.962 210.57 273.962C211.703 275.149 213.165 275.97 214.769 276.318C216.372 276.666 218.043 276.527 219.567 275.916C221.09 275.306 222.395 274.254 223.315 272.895C224.235 271.536 224.726 269.932 224.726 268.291C224.726 266.65 224.235 265.047 223.315 263.688C222.395 262.329 221.09 261.277 219.567 260.666C218.043 260.056 216.372 259.916 214.769 260.265C213.165 260.613 211.703 261.434 210.57 262.621C203.717 267.109 199.633 260.078 199.633 260.078V232.069H227.626C227.626 232.069 234.718 227.985 230.169 221.132C228.982 220 228.162 218.537 227.813 216.934C227.465 215.33 227.605 213.659 228.215 212.136C228.825 210.612 229.878 209.307 231.237 208.387C232.596 207.467 234.199 206.976 235.84 206.976C237.481 206.976 239.084 207.467 240.443 208.387C241.802 209.307 242.855 210.612 243.465 212.136C244.075 213.659 244.215 215.33 243.867 216.934C243.518 218.537 242.698 220 241.51 221.132C241.51 221.132 236.064 228.389 244.054 232.069H272.047V304.498H199.633Z" fill="url(#paint6_linear)"/>
<path d="M145.996 303.002H140.939L192.706 166.313C192.88 165.872 193.183 165.493 193.575 165.226C193.968 164.96 194.431 164.817 194.905 164.817C195.288 164.816 195.666 164.909 196.005 165.086C196.345 165.264 196.636 165.521 196.854 165.836C197.071 166.151 197.209 166.515 197.256 166.895C197.302 167.275 197.256 167.661 197.12 168.019L145.996 303.002Z" fill="#4E74FF"/>
<path d="M176.323 303.002H171.266L223.602 164.787H228.659L176.323 303.002Z" fill="#4E74FF"/>
<path d="M215.432 186.377H188.681L190.028 182.816H216.779L215.432 186.377Z" fill="#4E74FF"/>
<path d="M207.203 208.086H180.452L181.814 204.525H208.565L207.203 208.086Z" fill="#4E74FF"/>
<path d="M198.99 229.795H172.238L173.585 226.219H200.336L198.99 229.795Z" fill="#4E74FF"/>
<path d="M190.776 251.49H164.024L165.371 247.929H192.122L190.776 251.49Z" fill="#4E74FF"/>
<path d="M182.547 273.199H155.795L157.157 269.638H183.893L182.547 273.199Z" fill="#4E74FF"/>
<path d="M190.163 186.377L183.28 204.525H208.61L207.264 208.086H181.979L175.111 226.219H200.381L199.035 229.78H173.72L166.852 247.929H192.153L190.806 251.49H165.506L158.624 269.638H183.909L182.547 273.199H157.277L145.996 303.002H140.939L192.706 166.313C192.931 165.844 193.304 165.462 193.768 165.227C194.232 164.992 194.76 164.916 195.272 165.011C195.783 165.107 196.248 165.368 196.596 165.755C196.944 166.142 197.154 166.632 197.195 167.151C197.195 167.437 197.144 167.721 197.045 167.989L191.434 182.816H216.705L215.358 186.377H190.163Z" fill="url(#paint7_linear)"/>
<path d="M176.323 303.002H171.266L223.602 164.787H228.659L176.323 303.002Z" fill="url(#paint8_linear)"/>
<path d="M427.214 184.821C426.467 185.453 425.571 185.885 424.611 186.077C423.73 186.114 422.851 185.956 422.038 185.614L409.59 181.469C408.649 182.202 408.021 183.264 407.832 184.441C407.644 185.618 407.908 186.823 408.572 187.813C409.792 189.15 411.38 190.097 413.136 190.536L421.679 193.603C423.65 194.524 425.802 194.995 427.978 194.982C430.155 194.97 432.301 194.473 434.261 193.528C436.805 192.676 439.603 191.613 440.829 189.219C442.056 186.826 441.159 183.654 441.518 180.856C441.99 179.079 442.325 177.268 442.52 175.44C442.52 173.869 441.233 171.505 439.363 171.834C437.747 172.118 436.67 174.931 435.817 176.113C433.413 179.439 430.511 182.376 427.214 184.821Z" fill="white"/>
<path d="M408.033 180.766C407.903 180.429 407.705 180.124 407.45 179.868C407.324 179.74 407.163 179.652 406.988 179.615C406.812 179.577 406.629 179.593 406.462 179.659C406.299 179.759 406.167 179.904 406.083 180.076C405.998 180.248 405.963 180.441 405.983 180.631C405.995 180.699 405.994 180.768 405.978 180.835C405.963 180.902 405.934 180.965 405.894 181.02C405.804 181.11 405.639 181.02 405.505 181.02C404.098 180.751 402.662 180.542 401.226 180.392C401.072 180.361 400.912 180.373 400.764 180.425C400.616 180.478 400.485 180.57 400.385 180.691C400.285 180.813 400.22 180.959 400.197 181.114C400.174 181.27 400.193 181.429 400.253 181.574C400.409 182.05 400.647 182.496 400.956 182.891C401.689 184.087 401.959 185.658 403.126 186.436C403.839 186.854 404.669 187.027 405.49 186.93C406.313 186.93 407.121 186.736 407.943 186.781C408.487 186.897 409.054 186.834 409.559 186.601C409.748 186.46 409.897 186.274 409.994 186.059C410.091 185.844 410.132 185.609 410.113 185.374C410.026 184.635 409.765 183.927 409.35 183.309C408.886 182.502 408.452 181.634 408.033 180.766Z" fill="#FDB9A9"/>
<path d="M442.744 274.47C437.986 273.393 438.914 280.141 437.657 282.654C436.862 283.945 435.849 285.089 434.665 286.036C433.499 287.007 432.736 288.378 432.525 289.881C432.497 290.161 432.555 290.442 432.69 290.689C432.933 290.985 433.272 291.186 433.648 291.257C436.368 292.052 439.29 291.762 441.802 290.449C442.978 289.895 443.955 288.991 444.6 287.861C445.121 286.643 445.366 285.325 445.318 284.001C445.467 281.188 446.724 275.353 442.744 274.47Z" fill="#A67C52"/>
<path d="M438.525 288.385C438.525 288.385 424.97 288.968 430.715 293.218C436.46 297.467 445.033 292.185 445.871 291.213C446.709 290.24 446.021 288.579 446.021 288.579L438.525 288.385Z" fill="#4E74FF"/>
<path d="M445.273 290.255C444.076 291.751 437.702 293.711 434.875 293.502C432.047 293.292 429.518 292.005 429.803 290.165C430.087 288.325 435.054 284.091 435.997 284.106C436.939 284.121 437.672 286.29 439.558 286.739C440.4 286.879 441.264 286.801 442.068 286.513C442.872 286.225 443.589 285.736 444.151 285.093C444.319 284.868 444.558 284.706 444.829 284.633C445.1 284.56 445.388 284.58 445.647 284.689C446.041 285.578 446.213 286.549 446.148 287.518C446.083 288.488 445.783 289.427 445.273 290.255Z" fill="white"/>
<path d="M459.097 277.134C454.339 276.027 455.267 282.789 454.01 285.288C453.215 286.583 452.203 287.732 451.018 288.684C449.852 289.65 449.089 291.016 448.878 292.514C448.853 292.799 448.911 293.084 449.043 293.337C449.289 293.629 449.627 293.829 450 293.906C452.721 294.694 455.641 294.405 458.154 293.098C459.329 292.533 460.304 291.625 460.952 290.495C461.471 289.281 461.717 287.968 461.67 286.649C461.82 283.807 463.077 277.987 459.097 277.134Z" fill="#A67C52"/>
<path d="M454.878 290.988C454.878 290.988 441.323 291.557 447.069 295.836C452.814 300.115 461.387 294.788 462.225 293.816C463.062 292.843 462.374 291.183 462.374 291.183L454.878 290.988Z" fill="#4E74FF"/>
<path d="M461.626 292.828C460.429 294.325 454.055 296.3 451.228 296.09C448.4 295.881 445.871 294.594 446.156 292.754C446.44 290.913 451.407 286.679 452.35 286.769C453.292 286.859 454.026 288.953 455.911 289.387C456.752 289.53 457.616 289.455 458.42 289.17C459.224 288.884 459.941 288.398 460.504 287.756C460.67 287.53 460.909 287.366 461.181 287.292C461.453 287.219 461.742 287.24 462 287.353C462.379 288.229 462.543 289.183 462.478 290.136C462.413 291.089 462.121 292.012 461.626 292.828Z" fill="white"/>
<path d="M453.188 213.786L446.814 280.859L437.598 279.722C432.346 237.291 436.685 210.899 436.685 210.899L453.188 213.786Z" fill="url(#paint9_linear)"/>
<path d="M446.814 215.597L453.188 282.684L462.374 281.547C466.01 265.179 465.112 216.21 465.112 216.21L446.814 215.597Z" fill="url(#paint10_linear)"/>
<path d="M437.522 189.534C437.403 188.307 437.074 187.08 436.954 185.823C436.654 183.295 436.7 180.738 437.088 178.223C437.521 175.538 438.332 172.929 439.497 170.472C440.545 168.348 442.49 167.48 444.614 166.373C446.421 165.401 448.378 164.739 450.404 164.413C451.83 164.283 453.267 164.363 454.668 164.652C459.007 165.475 464.708 167.645 467.67 171.131C469.899 173.689 470.154 177.37 470.228 180.766C470.318 185.449 470.228 190.132 469.929 194.815C469.929 195.488 469.854 196.162 469.795 196.85C469.553 202.06 468.766 207.23 467.446 212.275C467.198 213.852 466.344 215.269 465.067 216.225C461.67 218.2 456.494 217.108 452.828 216.599C447.966 215.911 442.983 215.193 438.674 212.829C437.78 212.445 437.057 211.748 436.64 210.869C436.425 209.761 436.566 208.614 437.044 207.592C438.54 202.804 437.373 197.762 437.373 192.87C437.373 191.987 437.478 191.09 437.478 190.192C437.522 189.982 437.522 189.758 437.522 189.534Z" fill="white"/>
<path d="M452.784 198.196C453.937 198.914 455.208 199.42 456.539 199.692C460.504 200.844 464.573 201.458 468.508 202.685C468.776 202.737 469.024 202.861 469.226 203.044C469.387 203.292 469.461 203.587 469.436 203.882C469.454 205.034 469.282 206.182 468.927 207.278C468.812 207.825 468.497 208.311 468.044 208.639C467.469 208.849 466.839 208.849 466.264 208.639L451.437 205.498C450.376 205.227 449.285 205.096 448.19 205.109C446.893 205.26 445.621 205.576 444.405 206.051C442.131 206.779 439.791 207.281 437.418 207.547C437.544 204.717 437.889 201.901 438.45 199.124C438.668 198.303 438.979 197.51 439.378 196.76C439.856 196.019 440.419 195.337 441.054 194.725C443.447 192.227 445.108 189.1 447.532 186.601C448.804 185.284 450.39 184.447 451.512 183.04C451.961 182.472 455.851 177.579 455.477 177.056C456.225 177.983 458.08 177.056 458.753 178.013C459.172 178.612 458.753 179.419 458.364 180.033C455.498 184.833 453.497 190.1 452.454 195.593C452.155 196.865 451.706 197.314 452.784 198.196Z" fill="#E4EBF9"/>
<path d="M440.694 136.779C442.069 137.663 443.15 138.937 443.797 140.438C444.444 141.94 444.628 143.6 444.326 145.207C444.024 146.814 443.249 148.294 442.101 149.458C440.953 150.622 439.484 151.417 437.881 151.741C437.881 151.741 429.383 154.942 434.156 162.333L457.765 177.37L442.803 200.979C435.412 205.752 432.211 197.254 432.211 197.254C431.889 195.649 431.095 194.178 429.93 193.029C428.765 191.879 427.283 191.105 425.674 190.805C424.065 190.505 422.404 190.694 420.903 191.346C419.402 191.998 418.131 193.085 417.253 194.466C416.375 195.846 415.93 197.458 415.976 199.094C416.022 200.73 416.556 202.314 417.509 203.644C418.463 204.974 419.793 205.988 421.328 206.555C422.862 207.123 424.532 207.218 426.121 206.829C434.35 206.665 433.991 214.849 433.991 214.849L419.029 238.458L357.926 199.558L372.813 176.158C380.204 171.4 383.406 179.883 383.406 179.883C383.723 181.494 384.515 182.972 385.68 184.128C386.845 185.284 388.33 186.065 389.943 186.369C391.556 186.673 393.223 186.487 394.729 185.835C396.235 185.183 397.511 184.094 398.393 182.71C399.275 181.325 399.722 179.709 399.676 178.068C399.63 176.427 399.094 174.838 398.136 173.505C397.179 172.172 395.844 171.156 394.304 170.589C392.763 170.022 391.089 169.929 389.495 170.323C381.266 170.487 381.64 162.303 381.64 162.303L396.811 138.455L420.436 153.506C420.436 153.506 428.62 153.865 428.455 145.636C428.194 144.555 428.152 143.433 428.332 142.336C428.512 141.239 428.91 140.188 429.503 139.248C430.681 137.462 432.509 136.206 434.598 135.745C436.687 135.284 438.873 135.655 440.694 136.779Z" fill="url(#paint11_linear)"/>
<path d="M477.126 185.15C477.739 186.218 478.24 187.346 478.622 188.516C479.105 190.568 479.156 192.698 478.772 194.77C478.591 196.802 477.861 198.746 476.662 200.396C474.134 203.388 469.615 203.672 465.695 203.298C461.245 202.888 456.852 202.005 452.589 200.665C452.192 200.576 451.82 200.402 451.497 200.156C451.151 199.765 450.914 199.291 450.808 198.78C450.482 197.54 450.266 196.273 450.165 194.994C454.654 193.708 459.621 194.755 464.304 194.067C464.623 194.066 464.937 193.988 465.22 193.841C465.503 193.694 465.747 193.481 465.932 193.22C466.116 192.96 466.236 192.659 466.28 192.343C466.325 192.027 466.294 191.705 466.189 191.404C465.964 188.77 464.334 186.466 463.571 183.923C462.823 181.475 462.886 178.851 463.75 176.442C464.008 175.593 464.446 174.81 465.035 174.146C465.624 173.482 466.349 172.954 467.161 172.597C469.032 171.984 469.75 173.45 470.782 174.826C473.158 178.1 475.279 181.551 477.126 185.15Z" fill="white"/>
<path d="M448.295 193.319C448.119 193.175 447.907 193.082 447.682 193.049C447.509 193.067 447.345 193.131 447.206 193.234C447.066 193.336 446.957 193.474 446.889 193.633C446.757 193.956 446.607 194.27 446.44 194.576C446.215 194.825 445.937 195.021 445.626 195.148C445.315 195.275 444.979 195.33 444.644 195.309C443.973 195.241 443.296 195.241 442.624 195.309C442.376 195.36 442.144 195.473 441.951 195.638C441.767 195.818 441.638 196.046 441.577 196.296C441.463 196.804 441.477 197.333 441.618 197.835C441.759 198.336 442.023 198.794 442.385 199.169C443.116 199.909 444.014 200.464 445.003 200.785C446.013 201.23 447.133 201.366 448.22 201.174C448.817 201 449.386 200.743 449.911 200.411L452.095 199.199C452.277 199.112 452.44 198.99 452.574 198.84C453.053 198.241 452.394 196.446 451.961 195.847C450.869 194.83 449.634 193.978 448.295 193.319Z" fill="#A67C52"/>
<path d="M446.828 157.62C446.828 156.334 446.933 155.032 447.067 153.775C447.202 152.519 447.367 151.531 447.576 150.424C447.59 150.096 447.675 149.775 447.825 149.484C447.975 149.192 448.186 148.936 448.444 148.733C450.173 147.701 452.161 147.182 454.174 147.237C454.936 147.183 455.7 147.289 456.419 147.546C457.137 147.804 457.794 148.208 458.348 148.733C459.024 149.592 459.425 150.635 459.5 151.726C459.57 154.557 459.289 157.387 458.663 160.149C458.346 162.318 458.231 164.512 458.318 166.702C457.258 167.407 456.04 167.839 454.773 167.959C454.183 167.953 453.598 167.857 453.037 167.675C452.725 167.604 452.449 167.423 452.259 167.166C452.192 166.926 452.192 166.673 452.259 166.433C452.274 166.204 452.274 165.974 452.259 165.745C452.347 164.463 452.321 163.177 452.184 161.899C452.187 161.844 452.177 161.789 452.157 161.737C452.136 161.685 452.105 161.639 452.065 161.6C451.982 161.571 451.892 161.571 451.81 161.6H451.451C450.815 161.668 450.173 161.668 449.536 161.6C448.77 161.525 448.058 161.174 447.531 160.613C446.923 159.742 446.672 158.671 446.828 157.62Z" fill="#A67C52"/>
<path d="M449.492 149.421C449.043 149.421 448.639 149.661 448.25 149.421C447.843 149.084 447.486 148.691 447.188 148.254C446.473 147.306 446.123 146.133 446.201 144.948C446.229 144.412 446.405 143.894 446.709 143.452C447.042 143.05 447.468 142.736 447.951 142.539C448.879 142.082 449.912 141.881 450.943 141.956C452.438 142.15 453.832 142.816 454.923 143.856C455.153 144.096 455.434 144.28 455.746 144.394C456.032 144.455 456.328 144.455 456.614 144.394C458.507 144.235 460.389 144.814 461.865 146.01C462.703 146.743 463.362 147.686 464.229 148.329C465.097 148.973 465.95 149.212 466.399 150.035C466.586 150.417 466.662 150.845 466.617 151.269C466.572 151.692 466.408 152.094 466.144 152.429C465.587 153.085 464.821 153.529 463.975 153.686C464.068 153.929 464.111 154.188 464.103 154.449C464.094 154.709 464.034 154.965 463.925 155.202C463.817 155.439 463.662 155.652 463.47 155.828C463.278 156.004 463.053 156.141 462.808 156.229C462.462 156.282 462.129 156.393 461.821 156.558C461.611 156.723 461.521 156.977 461.312 157.142C460.818 157.546 460.175 157.68 459.965 158.369C459.903 158.658 459.878 158.955 459.891 159.251C459.854 159.69 459.676 160.105 459.382 160.433C459.187 160.643 458.843 161.166 458.559 161.226C458.275 161.286 458.02 160.942 457.931 160.643C457.58 159.374 457.669 158.024 458.185 156.813C458.555 156.228 458.771 155.558 458.813 154.867C458.813 154.179 457.826 153.641 457.317 154.045C456.808 154.449 456.779 155.421 456.24 155.227C456.574 154.26 456.549 153.205 456.17 152.254C455.791 151.304 455.083 150.521 454.175 150.05C453.167 149.742 452.117 149.595 451.063 149.616C450.571 149.512 450.07 149.457 449.567 149.451L449.492 149.421Z" fill="#37446F"/>
<path d="M451.452 161.63C452.938 161.347 454.391 160.916 455.791 160.343C455.917 161.523 455.634 162.709 454.988 163.704C454.342 164.698 453.373 165.44 452.245 165.804C452.357 164.525 452.357 163.239 452.245 161.959C452.244 161.848 452.201 161.742 452.125 161.66C452.043 161.63 451.953 161.63 451.871 161.66H451.527L451.452 161.63Z" fill="#8C6239"/>
<path d="M404.607 172.388C404.834 172.713 404.981 173.087 405.035 173.48C405.09 173.872 405.051 174.272 404.921 174.647C404.662 175.396 404.283 176.098 403.799 176.726L401.45 180.198C400.837 181.095 399.954 182.113 398.922 182.023C396.348 181.843 395.211 175.17 396.169 173.196C397.276 170.727 402.916 170.278 404.607 172.388Z" fill="#A67C52"/>
<path d="M416.727 232.069V304.498H344.312V276.49C344.312 276.49 348.397 269.399 355.249 273.947C356.382 275.134 357.845 275.955 359.448 276.303C361.052 276.652 362.723 276.512 364.246 275.901C365.77 275.291 367.075 274.239 367.995 272.88C368.914 271.521 369.406 269.917 369.406 268.276C369.406 266.636 368.914 265.032 367.995 263.673C367.075 262.314 365.77 261.262 364.246 260.651C362.723 260.041 361.052 259.901 359.448 260.25C357.845 260.598 356.382 261.419 355.249 262.606C355.249 262.606 347.993 268.052 344.312 260.063V232.069H372.306C380.295 228.389 374.849 221.132 374.849 221.132C373.662 220 372.841 218.537 372.493 216.934C372.144 215.33 372.284 213.659 372.895 212.136C373.505 210.612 374.557 209.307 375.916 208.387C377.275 207.467 378.879 206.976 380.52 206.976C382.161 206.976 383.764 207.467 385.123 208.387C386.482 209.307 387.534 210.612 388.145 212.136C388.755 213.659 388.895 215.33 388.546 216.934C388.198 218.537 387.377 220 386.19 221.132C381.702 227.985 388.734 232.069 388.734 232.069H416.727Z" fill="#37446F"/>
<path d="M297.004 195.847C296.999 197.487 296.504 199.089 295.582 200.446C294.661 201.802 293.355 202.853 291.832 203.462C290.309 204.072 288.639 204.212 287.036 203.866C285.433 203.519 283.97 202.702 282.835 201.518C275.982 197.029 271.898 204.061 271.898 204.061V232.069H344.312V159.64H271.898V187.633C275.579 195.623 282.835 190.177 282.835 190.177C283.97 188.993 285.433 188.175 287.036 187.829C288.639 187.482 290.309 187.623 291.832 188.232C293.355 188.841 294.661 189.892 295.582 191.249C296.504 192.606 296.999 194.207 297.004 195.847Z" fill="#4E74FF"/>
<path d="M302.434 243.006C301.247 244.139 300.426 245.602 300.078 247.205C299.729 248.809 299.869 250.48 300.479 252.003C301.09 253.526 302.142 254.832 303.501 255.752C304.86 256.671 306.463 257.163 308.104 257.163C309.745 257.163 311.349 256.671 312.708 255.752C314.067 254.832 315.119 253.526 315.729 252.003C316.339 250.48 316.479 248.809 316.131 247.205C315.783 245.602 314.962 244.139 313.775 243.006C313.775 243.006 308.329 235.75 316.318 232.069H299.875C299.875 232.069 306.982 236.154 302.434 243.006Z" fill="#4E74FF"/>
<path d="M271.898 159.64V187.633C275.579 195.623 282.835 190.177 282.835 190.177C283.968 188.99 285.43 188.169 287.034 187.821C288.637 187.472 290.308 187.612 291.832 188.222C293.355 188.832 294.661 189.885 295.58 191.244C296.5 192.603 296.991 194.206 296.991 195.847C296.991 197.488 296.5 199.092 295.58 200.451C294.661 201.81 293.355 202.862 291.832 203.472C290.308 204.082 288.637 204.222 287.034 203.874C285.43 203.526 283.968 202.705 282.835 201.518C275.982 197.029 271.898 204.061 271.898 204.061V232.069H299.876C299.876 232.069 306.968 236.154 302.42 243.006C301.232 244.139 300.412 245.602 300.063 247.205C299.715 248.809 299.855 250.48 300.465 252.003C301.075 253.526 302.128 254.832 303.487 255.752C304.846 256.671 306.449 257.163 308.09 257.163C309.731 257.163 311.334 256.671 312.693 255.752C314.052 254.832 315.105 253.526 315.715 252.003C316.325 250.48 316.465 248.809 316.117 247.205C315.768 245.602 314.948 244.139 313.76 243.006C313.76 243.006 308.314 235.75 316.304 232.069H344.312V159.64H271.898Z" fill="url(#paint12_linear)"/>
<path d="M271.898 232.069V304.498H344.312V276.49C344.312 276.49 348.397 269.399 355.249 273.947C356.382 275.134 357.844 275.955 359.448 276.303C361.051 276.651 362.723 276.512 364.246 275.901C365.769 275.291 367.075 274.239 367.994 272.88C368.914 271.521 369.406 269.917 369.406 268.276C369.406 266.635 368.914 265.032 367.994 263.673C367.075 262.314 365.769 261.262 364.246 260.651C362.723 260.041 361.051 259.901 359.448 260.25C357.844 260.598 356.382 261.419 355.249 262.606C355.249 262.606 347.993 268.052 344.312 260.062V232.069H316.334C308.344 235.75 313.79 243.006 313.79 243.006C314.978 244.139 315.798 245.602 316.147 247.205C316.495 248.809 316.355 250.48 315.745 252.003C315.135 253.526 314.082 254.832 312.723 255.752C311.364 256.671 309.761 257.163 308.12 257.163C306.479 257.163 304.876 256.671 303.517 255.752C302.158 254.832 301.105 253.526 300.495 252.003C299.885 250.48 299.745 248.809 300.093 247.205C300.442 245.602 301.262 244.139 302.45 243.006C306.938 236.154 299.906 232.069 299.906 232.069H271.898Z" fill="#4E74FF"/>
<path d="M199.633 304.498V276.505C203.313 268.516 210.57 273.962 210.57 273.962C211.703 275.149 213.165 275.97 214.769 276.318C216.372 276.666 218.043 276.527 219.567 275.916C221.09 275.306 222.395 274.254 223.315 272.895C224.235 271.536 224.726 269.932 224.726 268.291C224.726 266.65 224.235 265.047 223.315 263.688C222.395 262.329 221.09 261.277 219.567 260.666C218.043 260.056 216.372 259.916 214.769 260.265C213.165 260.613 211.703 261.434 210.57 262.621C203.717 267.109 199.633 260.078 199.633 260.078V232.069H227.626C227.626 232.069 234.718 227.985 230.169 221.132C228.982 220 228.162 218.537 227.813 216.934C227.465 215.33 227.605 213.659 228.215 212.136C228.825 210.612 229.878 209.307 231.237 208.387C232.596 207.467 234.199 206.976 235.84 206.976C237.481 206.976 239.084 207.467 240.443 208.387C241.802 209.307 242.855 210.612 243.465 212.136C244.075 213.659 244.215 215.33 243.867 216.934C243.518 218.537 242.698 220 241.51 221.132C241.51 221.132 236.064 228.389 244.054 232.069H272.047V304.498H199.633Z" fill="#37446F"/>
<path d="M297.093 195.862C297.088 197.502 296.593 199.104 295.671 200.461C294.75 201.817 293.444 202.868 291.921 203.477C290.399 204.087 288.728 204.227 287.125 203.881C285.522 203.534 284.059 202.717 282.924 201.533C282.924 201.533 275.668 196.087 271.987 204.076V232.069H243.994C236.004 228.389 241.45 221.132 241.45 221.132C242.638 220 243.458 218.537 243.807 216.934C244.155 215.33 244.015 213.659 243.405 212.136C242.795 210.612 241.742 209.307 240.383 208.387C239.024 207.467 237.421 206.976 235.78 206.976C234.139 206.976 232.536 207.467 231.177 208.387C229.818 209.307 228.765 210.612 228.155 212.136C227.545 213.659 227.405 215.33 227.753 216.934C228.102 218.537 228.922 220 230.11 221.132C234.598 227.985 227.566 232.069 227.566 232.069H199.633V159.64H227.357C235.346 163.321 229.9 170.577 229.9 170.577C228.713 171.71 227.892 173.172 227.544 174.776C227.196 176.379 227.335 178.051 227.946 179.574C228.556 181.097 229.608 182.403 230.967 183.322C232.326 184.242 233.93 184.734 235.571 184.734C237.212 184.734 238.815 184.242 240.174 183.322C241.533 182.403 242.585 181.097 243.196 179.574C243.806 178.051 243.946 176.379 243.597 174.776C243.249 173.172 242.428 171.71 241.241 170.577C236.753 163.725 243.784 159.64 243.784 159.64H272.047V187.648C272.047 187.648 276.131 194.74 282.984 190.192C284.119 189.008 285.582 188.19 287.185 187.844C288.788 187.497 290.458 187.638 291.981 188.247C293.504 188.856 294.81 189.907 295.731 191.264C296.653 192.621 297.148 194.222 297.152 195.862H297.093Z" fill="#4E74FF"/>
<path d="M314.837 335.035C314.864 336.678 314.397 338.29 313.497 339.664C312.597 341.039 311.306 342.112 309.79 342.745C308.274 343.378 306.604 343.542 304.994 343.216C303.384 342.89 301.908 342.088 300.759 340.915C300.759 340.915 293.427 335.574 289.867 343.608L290.271 371.601L262.277 372.005C254.228 368.444 259.569 361.113 259.569 361.113C260.735 359.964 261.53 358.493 261.852 356.888C262.174 355.283 262.008 353.619 261.376 352.109C260.744 350.599 259.675 349.313 258.306 348.416C256.937 347.52 255.331 347.053 253.694 347.077C252.057 347.1 250.466 347.613 249.123 348.55C247.781 349.486 246.749 350.802 246.161 352.33C245.573 353.857 245.456 355.526 245.824 357.12C246.193 358.715 247.03 360.163 248.228 361.278C252.881 368.055 245.85 372.245 245.85 372.245L217.856 372.649L216.809 300.219L244.533 299.83C252.582 303.391 247.241 310.723 247.241 310.723C246.076 311.872 245.281 313.343 244.959 314.948C244.637 316.553 244.802 318.217 245.434 319.727C246.066 321.236 247.135 322.523 248.505 323.419C249.874 324.316 251.48 324.783 253.116 324.759C254.753 324.735 256.345 324.222 257.687 323.286C259.03 322.35 260.061 321.033 260.649 319.506C261.237 317.978 261.354 316.31 260.986 314.715C260.617 313.121 259.78 311.673 258.582 310.558C253.929 303.78 260.961 299.591 260.961 299.591L289.223 299.187L289.627 327.195C289.627 327.195 293.816 334.227 300.594 329.574C301.363 328.754 302.289 328.099 303.317 327.646C304.346 327.194 305.455 326.954 306.579 326.941C308.745 326.925 310.831 327.767 312.378 329.284C313.926 330.801 314.81 332.868 314.837 335.035Z" fill="url(#paint13_linear)"/>
<path d="M226.953 300.489C225.95 301.596 225.172 304.035 226.758 305.067C227.325 305.373 227.954 305.547 228.598 305.576L237.067 306.608C236.812 306.608 241.241 356.505 242.976 367.113C243.186 368.369 243.71 369.94 244.981 370.105C245.363 370.082 245.733 369.97 246.063 369.778C246.393 369.585 246.674 369.318 246.881 368.998C248.104 367.083 248.8 364.879 248.901 362.609C251.005 346.322 252.004 329.912 251.894 313.49C251.894 310.244 251.774 306.847 250.158 304.02C249.166 302.481 247.865 301.166 246.337 300.156C244.81 299.147 243.09 298.465 241.286 298.155C236.453 297.062 230.469 296.569 226.953 300.489Z" fill="#4362D3"/>
<path d="M247.331 404.053V404.247C247.69 405.16 248.827 405.459 249.784 405.579C250.688 405.678 251.598 405.718 252.507 405.699C252.943 405.715 253.379 405.654 253.794 405.519C254.175 405.352 254.532 405.135 254.856 404.876L257.475 402.931C258.21 402.424 258.883 401.831 259.479 401.165C260.069 400.481 260.379 399.599 260.347 398.697C260.316 398.251 260.148 397.825 259.868 397.477C259.587 397.129 259.206 396.876 258.776 396.752C258.23 396.685 257.677 396.685 257.13 396.752C256.523 396.829 255.905 396.73 255.353 396.464C254.801 396.199 254.337 395.779 254.018 395.255C253.91 394.767 253.648 394.327 253.27 393.999C252.89 393.813 252.458 393.761 252.044 393.849C251.135 393.895 250.238 394.071 249.38 394.373C248.948 394.528 248.555 394.777 248.232 395.104C247.908 395.43 247.662 395.824 247.51 396.258C247.419 396.66 247.378 397.072 247.39 397.485C247.443 398.337 247.443 399.191 247.39 400.043C247.271 401.106 247.211 402.175 247.211 403.245C247.219 403.518 247.259 403.789 247.331 404.053Z" fill="#37446F"/>
<path d="M272.72 404.397C270.957 405.204 269.143 405.894 267.289 406.462C266.551 406.78 265.725 406.828 264.955 406.596C264.653 406.45 264.386 406.241 264.172 405.983C263.958 405.725 263.802 405.424 263.713 405.1C263.552 404.44 263.486 403.76 263.519 403.08C263.633 402.03 263.849 400.993 264.162 399.983C264.327 399.041 264.461 398.098 264.581 397.156C264.776 395.794 264.955 394.448 265.12 393.101L269.833 394.103C270.326 394.208 270.79 396.108 271.089 396.512C271.309 396.81 271.592 397.054 271.918 397.228C272.244 397.401 272.605 397.499 272.975 397.515C273.778 397.399 274.587 397.334 275.398 397.32C275.921 397.443 276.389 397.736 276.727 398.153C277.066 398.57 277.256 399.087 277.269 399.624C277.264 400.158 277.149 400.685 276.93 401.172C276.711 401.659 276.393 402.095 275.997 402.452C275.203 403.171 274.292 403.747 273.304 404.158L272.72 404.397Z" fill="#37446F"/>
<path d="M272.795 399.131C271.559 399.834 270.274 400.449 268.95 400.971H268.831C266.646 401.824 264.207 398.398 264.207 398.398C264.207 398.398 261.125 379.366 261.215 371.467C261.32 366.051 260.033 358.33 258.103 344.326C257.624 358.63 255.201 364.914 255.814 370.045C256.757 377.84 255.634 397.201 255.634 397.201C255.634 397.201 253.57 400.971 251.311 400.462H251.176C249.816 400.153 248.48 399.743 247.181 399.235C247.181 399.235 244.548 372.574 244.548 365.542C244.548 358.51 244.847 352.211 244.847 352.211L243.471 329.948L249.336 321.42L249.814 321.226L250.263 320.777L256.772 316.004C256.772 316.004 256.772 317.111 256.652 318.996L261.709 321.704L262.188 322.063L262.681 322.183L271.15 323.679C271.15 323.679 273.364 357.837 274.142 364.824C274.92 371.811 272.795 399.131 272.795 399.131Z" fill="#4E74FF"/>
<path d="M272.795 399.131C271.559 399.834 270.274 400.449 268.95 400.971H268.831C266.646 401.824 264.207 398.398 264.207 398.398C264.207 398.398 261.125 379.366 261.215 371.467C261.32 366.051 260.033 358.33 258.103 344.326C257.624 358.63 255.201 364.914 255.814 370.045C256.757 377.84 255.634 397.201 255.634 397.201C255.634 397.201 253.57 400.971 251.311 400.462H251.176C249.816 400.153 248.48 399.743 247.181 399.235C247.181 399.235 244.548 372.574 244.548 365.542C244.548 358.51 244.847 352.211 244.847 352.211L243.471 329.948L249.336 321.42L249.814 321.226L250.263 320.777L256.772 316.004C256.772 316.004 256.772 317.111 256.652 318.996L261.709 321.704L262.188 322.063L262.681 322.183L271.15 323.679C271.15 323.679 273.364 357.837 274.142 364.824C274.92 371.811 272.795 399.131 272.795 399.131Z" fill="url(#paint14_linear)"/>
<path d="M312.653 280.066C312.758 279.991 312.883 279.95 313.012 279.947C313.356 279.947 313.371 280.5 313.251 280.829C312.938 281.747 312.484 282.61 311.905 283.388C311.717 283.582 311.605 283.836 311.59 284.106C311.59 284.375 311.83 284.57 312.009 284.764C312.56 285.403 312.951 286.163 313.151 286.982C313.352 287.801 313.355 288.656 313.161 289.477C312.747 291.116 311.893 292.611 310.693 293.801C310.404 294.169 310.045 294.476 309.636 294.705C309.228 294.933 308.779 295.079 308.314 295.133C306.698 295.133 304.678 293.143 304.035 291.766C303.801 291.079 303.749 290.342 303.886 289.629C304.022 288.915 304.342 288.249 304.813 287.697C306.722 284.518 309.423 281.888 312.653 280.066Z" fill="#FDB9A9"/>
<path d="M265.778 264.356C266.302 264.895 267.11 265.449 266.886 266.152C266.766 266.526 266.362 266.75 266.063 267.02C265.324 267.803 264.926 268.846 264.956 269.922C264.987 270.992 264.835 272.06 264.507 273.079C264.32 273.583 263.965 274.007 263.501 274.28C263.038 274.553 262.495 274.657 261.963 274.575C261.35 274.411 260.736 273.872 260.138 274.126C259.539 274.381 259.539 274.874 259.3 275.293C258.973 275.809 258.508 276.223 257.958 276.487C257.408 276.752 256.795 276.856 256.188 276.789C254.988 276.609 253.831 276.208 252.777 275.608C252.329 275.429 251.94 275.128 251.655 274.74C251.481 274.36 251.439 273.934 251.535 273.528C251.905 272.31 252.51 271.177 253.315 270.191C254.605 268.203 255.382 265.926 255.575 263.563C255.694 261.918 255.575 260.107 256.637 258.836C258.133 257.1 261.529 257.115 263.31 258.387C265.09 259.658 264.133 262.666 265.778 264.356Z" fill="#FDB9A9"/>
<path d="M263.654 256.906C263.445 257.316 263.13 257.662 262.741 257.908C261.948 258.372 261.245 258.91 260.527 259.404C259.803 259.882 259.293 260.622 259.106 261.469C258.791 262.965 259.629 264.671 259.106 266.182C258.911 266.496 258.417 266.302 258.223 266.002C258.028 265.703 257.909 265.329 257.609 265.149C257.086 264.85 256.457 265.359 256.233 265.913C256.001 266.556 256.027 267.265 256.306 267.889C256.585 268.514 257.095 269.007 257.729 269.264C257.654 269.743 257.041 269.937 256.547 269.877C256.06 269.743 255.556 269.678 255.051 269.683C253.929 269.892 253.555 271.493 252.388 271.658C252.001 271.632 251.626 271.517 251.291 271.323C250.957 271.128 250.671 270.859 250.458 270.536L249.096 269.039C248.877 268.748 248.637 268.473 248.378 268.217C248.064 267.977 247.555 267.962 247.301 267.678C247.047 267.394 247.301 266.72 247.032 266.361C246.904 266.228 246.744 266.13 246.568 266.077C246.176 265.879 245.864 265.553 245.685 265.152C245.505 264.752 245.468 264.302 245.58 263.878C245.617 263.771 245.617 263.655 245.58 263.549C245.58 263.399 245.371 263.339 245.221 263.264C244.808 262.997 244.504 262.59 244.364 262.119C244.225 261.647 244.258 261.14 244.458 260.691C244.686 260.175 245.011 259.707 245.416 259.314C245.558 259.095 245.761 258.92 246 258.811C246.238 258.703 246.503 258.664 246.762 258.701L246.987 256.741C246.981 256.409 247.05 256.08 247.187 255.778C247.324 255.475 247.526 255.207 247.78 254.992C248.033 254.778 248.331 254.622 248.652 254.536C248.972 254.45 249.308 254.437 249.635 254.497L249.186 252.881C249.104 252.674 249.104 252.444 249.186 252.238C249.309 252.095 249.479 251.999 249.665 251.968C250.187 251.819 250.724 251.729 251.266 251.699C251.071 251.246 250.921 250.775 250.817 250.293C250.783 250.223 250.77 250.145 250.78 250.069C250.791 249.992 250.824 249.92 250.875 249.862C250.926 249.804 250.994 249.763 251.069 249.744C251.144 249.725 251.223 249.728 251.296 249.754C251.494 249.784 251.696 249.784 251.894 249.754C251.894 249.754 251.595 248.378 251.58 248.258C251.489 247.826 251.57 247.375 251.804 247.001C251.968 246.815 252.175 246.672 252.408 246.586C252.64 246.5 252.89 246.473 253.136 246.507C253.621 246.593 254.088 246.766 254.512 247.016C254.512 246.492 255.156 246.223 255.679 246.178C256.688 246.122 257.694 246.321 258.604 246.758C259.514 247.195 260.299 247.855 260.886 248.677C260.983 248.821 261.093 248.957 261.215 249.081C261.454 249.233 261.717 249.344 261.993 249.41C262.418 249.598 262.795 249.878 263.098 250.23C263.401 250.582 263.621 250.997 263.744 251.445C263.968 252.334 264.059 253.252 264.013 254.168C264.047 254.872 263.982 255.577 263.818 256.262C263.789 256.482 263.734 256.698 263.654 256.906Z" fill="#FE8A35"/>
<path d="M256.217 273.872C257.463 274.394 258.673 274.999 259.838 275.683C260.197 275.876 260.509 276.146 260.751 276.475C260.88 276.656 260.959 276.867 260.98 277.088C261.001 277.308 260.963 277.531 260.87 277.732C260.556 278.286 259.808 278.091 259.239 277.882C256.603 276.987 253.821 276.601 251.041 276.745C250.855 276.775 250.664 276.754 250.49 276.683C250.315 276.611 250.164 276.493 250.053 276.341C249.988 276.157 249.964 275.962 249.982 275.768C250 275.575 250.06 275.387 250.158 275.219C251.579 272.361 253.898 272.825 256.217 273.872Z" fill="white"/>
<path d="M307.431 295.925C306.891 297.269 306.093 298.494 305.082 299.531C304.11 300.623 303.107 301.671 302.09 302.688C299.632 305.064 297.039 307.297 294.325 309.376C292.481 311.005 290.284 312.183 287.906 312.817C286.942 313.043 285.933 312.98 285.004 312.638C284.248 312.261 283.565 311.754 282.984 311.141C282.296 310.453 274.306 301.252 274.172 301.252C273.718 301.495 273.368 301.893 273.184 302.374C272.03 304.765 271.315 307.345 271.074 309.989C270.977 311.169 270.977 312.355 271.074 313.535C271.389 317.56 272.795 321.704 271.404 325.505C271.126 326.308 270.665 327.035 270.057 327.629C269.471 328.141 268.797 328.542 268.067 328.811C266.777 329.339 265.432 329.72 264.057 329.948C263.272 330.093 262.477 330.178 261.679 330.202C258.686 330.322 255.844 329.754 252.911 329.888C250.427 330.023 247.959 330.666 245.43 330.576C245.074 330.646 244.706 330.637 244.353 330.551C244 330.465 243.67 330.303 243.386 330.077C243.101 329.851 242.869 329.566 242.706 329.241C242.542 328.917 242.451 328.561 242.438 328.198C241.469 322.87 240.968 317.469 240.942 312.054C240.942 310.169 240.837 308.269 240.717 306.384C240.613 304.783 241.047 300.713 239.221 300.399C234.583 299.501 229.766 300.638 225.083 299.98C225.213 296.916 226.514 294.018 228.718 291.886C229.799 290.973 230.973 290.176 232.219 289.507C233.654 288.479 234.943 287.261 236.049 285.886C239.231 281.957 243.262 278.801 247.839 276.655C248.568 276.298 249.336 276.027 250.128 275.847H250.323C250.437 275.834 250.553 275.834 250.667 275.847C251.668 275.763 252.676 275.823 253.659 276.026C260.334 277.134 266.939 278.633 273.438 280.515C274.296 280.708 275.109 281.063 275.832 281.562C276.337 282.019 276.771 282.548 277.119 283.133C278.944 285.886 280.725 288.669 282.565 291.422C284.151 293.786 285.707 296.748 288.041 298.484C293.122 296.419 297.918 293.714 302.314 290.435C302.928 289.971 303.721 289.462 304.424 289.776C304.658 289.881 304.867 290.034 305.037 290.225C306.758 291.721 308.269 293.367 307.431 295.925Z" fill="white"/>
</g>
<defs>
<linearGradient id="paint0_linear" x1="210.161" y1="139.462" x2="167.945" y2="148.65" gradientUnits="userSpaceOnUse">
<stop stop-color="#36446E"/>
<stop offset="1" stop-color="#6474A3"/>
</linearGradient>
<linearGradient id="paint1_linear" x1="193.649" y1="141.754" x2="164.086" y2="145.499" gradientUnits="userSpaceOnUse">
<stop stop-color="#36446E"/>
<stop offset="1" stop-color="#6474A3"/>
</linearGradient>
<linearGradient id="paint2_linear" x1="206.337" y1="110.149" x2="206.294" y2="91.3323" gradientUnits="userSpaceOnUse">
<stop stop-color="#4E74FF"/>
<stop offset="1" stop-color="#59C3FF"/>
</linearGradient>
<linearGradient id="paint3_linear" x1="281.987" y1="211.364" x2="152.259" y2="-52.0246" gradientUnits="userSpaceOnUse">
<stop offset="0.01"/>
<stop offset="0.08" stop-opacity="0.69"/>
<stop offset="0.21" stop-opacity="0.32"/>
<stop offset="1" stop-opacity="0"/>
</linearGradient>
<linearGradient id="paint4_linear" x1="185.995" y1="133.775" x2="185.767" y2="87.01" gradientUnits="userSpaceOnUse">
<stop stop-color="#4E74FF"/>
<stop offset="1" stop-color="#59C3FF"/>
</linearGradient>
<linearGradient id="paint5_linear" x1="196.825" y1="119.907" x2="196.751" y2="96.4684" gradientUnits="userSpaceOnUse">
<stop stop-color="#4E74FF"/>
<stop offset="1" stop-color="#59C3FF"/>
</linearGradient>
<linearGradient id="paint6_linear" x1="12495.6" y1="12672.3" x2="12297.2" y2="30098.6" gradientUnits="userSpaceOnUse">
<stop offset="0.01"/>
<stop offset="0.08" stop-opacity="0.69"/>
<stop offset="0.21" stop-opacity="0.32"/>
<stop offset="1" stop-opacity="0"/>
</linearGradient>
<linearGradient id="paint7_linear" x1="12527.1" y1="21985" x2="5857" y2="24084.9" gradientUnits="userSpaceOnUse">
<stop offset="0.01"/>
<stop offset="0.08" stop-opacity="0.69"/>
<stop offset="0.21" stop-opacity="0.32"/>
<stop offset="1" stop-opacity="0"/>
</linearGradient>
<linearGradient id="paint8_linear" x1="7686.27" y1="20131.4" x2="-1526.22" y2="22325.2" gradientUnits="userSpaceOnUse">
<stop offset="0.01"/>
<stop offset="0.08" stop-opacity="0.69"/>
<stop offset="0.21" stop-opacity="0.32"/>
<stop offset="1" stop-opacity="0"/>
</linearGradient>
<linearGradient id="paint9_linear" x1="453.188" y1="226.212" x2="430.117" y2="228.358" gradientUnits="userSpaceOnUse">
<stop stop-color="#36446E"/>
<stop offset="1" stop-color="#6474A3"/>
</linearGradient>
<linearGradient id="paint10_linear" x1="465.21" y1="230.281" x2="441.896" y2="232.568" gradientUnits="userSpaceOnUse">
<stop stop-color="#36446E"/>
<stop offset="1" stop-color="#6474A3"/>
</linearGradient>
<linearGradient id="paint11_linear" x1="411.814" y1="236.572" x2="411.482" y2="133.528" gradientUnits="userSpaceOnUse">
<stop stop-color="#4E74FF"/>
<stop offset="1" stop-color="#59C3FF"/>
</linearGradient>
<linearGradient id="paint12_linear" x1="14694.6" y1="24843.6" x2="20418.9" y2="1988.68" gradientUnits="userSpaceOnUse">
<stop/>
<stop offset="0.352083" stop-opacity="0.69"/>
<stop offset="0.685417" stop-opacity="0.32"/>
<stop offset="1" stop-opacity="0"/>
</linearGradient>
<linearGradient id="paint13_linear" x1="269.72" y1="371.302" x2="269.548" y2="297.742" gradientUnits="userSpaceOnUse">
<stop stop-color="#4E74FF"/>
<stop offset="1" stop-color="#59C3FF"/>
</linearGradient>
<linearGradient id="paint14_linear" x1="274.313" y1="334.631" x2="235.502" y2="339.665" gradientUnits="userSpaceOnUse">
<stop stop-color="#36446E"/>
<stop offset="1" stop-color="#6474A3"/>
</linearGradient>
<clipPath id="clip0">
<rect width="597.059" height="450" fill="white"/>
</clipPath>
</defs>
</svg>
