<svg width="42" height="42" viewBox="0 0 42 42" fill="none" xmlns="http://www.w3.org/2000/svg">
<path d="M2.49736 22.7964C3.16542 22.7964 3.79345 22.5362 4.26579 22.0639L11.3733 14.9563L12.7984 16.3813C13.2707 16.8537 13.8987 17.1139 14.5668 17.1139C15.2348 17.1139 15.8629 16.8537 16.3352 16.3814L22.9788 9.73777C23.4134 10.0877 23.9609 10.2862 24.546 10.2862C25.9252 10.2862 27.047 9.16429 27.047 7.78526V4.63386C27.047 3.25475 25.9251 2.13281 24.546 2.13281H21.3947C20.0155 2.13281 18.8936 3.25484 18.8936 4.63386C18.8936 5.21907 19.0921 5.76655 19.4421 6.20107L14.5668 11.0763L13.1417 9.65122C12.1665 8.6762 10.5801 8.6762 9.60496 9.65122L0.756901 18.4993V18.4994C0.274229 18.982 0.00549481 19.6164 8.07496e-05 20.2855C-0.00525128 20.9569 0.253639 21.5885 0.729092 22.0639C1.20143 22.5363 1.82946 22.7964 2.49736 22.7964V22.7964ZM1.91699 19.6593L10.7649 10.8114C11.1004 10.476 11.6461 10.476 11.9815 10.8114L13.9866 12.8165C14.307 13.1367 14.8262 13.1367 15.1467 12.8165L21.2382 6.725C21.4256 6.53756 21.5109 6.27121 21.4672 6.00969C21.4236 5.74826 21.2563 5.52407 21.018 5.40775C20.7195 5.26206 20.5341 4.96543 20.5341 4.63378C20.5341 4.15931 20.9201 3.77336 21.3946 3.77336H24.546C25.0203 3.77336 25.4063 4.15931 25.4063 4.63378V7.78518C25.4063 8.25956 25.0203 8.64552 24.546 8.64552C24.2142 8.64552 23.9177 8.46005 23.7719 8.16162C23.6556 7.92348 23.4314 7.75614 23.17 7.71241C22.9089 7.66894 22.6421 7.754 22.4547 7.94145L15.1749 15.2213C15.0125 15.3837 14.7964 15.4732 14.5666 15.4732C14.3368 15.4732 14.1208 15.3837 13.9584 15.2212L11.9533 13.2162C11.6329 12.896 11.1136 12.896 10.7931 13.2162L3.10554 20.9038C2.94312 21.0662 2.72713 21.1557 2.49728 21.1557C2.26751 21.1557 2.05152 21.0662 1.88901 20.9037C1.72692 20.7416 1.63866 20.5267 1.64054 20.2986C1.64251 20.0627 1.7407 19.8357 1.91699 19.6593V19.6593Z" fill="#4E74FF"/>
<path d="M39.539 2.13281C38.182 2.13281 37.078 3.23679 37.078 4.59375V34.9452H33.7966V12.6122C33.7966 11.7076 33.0606 10.9716 32.156 10.9716H28.8747C27.97 10.9716 27.234 11.7076 27.234 12.6122V20.087C27.234 20.54 27.6014 20.9073 28.0544 20.9073C28.5073 20.9073 28.8747 20.54 28.8747 20.087V12.6122H32.156V34.9452H28.8747V27.4698C28.8747 27.0168 28.5073 26.6495 28.0544 26.6495C27.6014 26.6495 27.234 27.0168 27.234 27.4698V34.9452H23.9529V19.1952C23.9529 18.2906 23.2169 17.5546 22.3123 17.5546H19.0309C18.1263 17.5546 17.3903 18.2906 17.3903 19.1952V34.9452H14.1091V22.2099C14.1091 21.3052 13.3731 20.5693 12.4685 20.5693H9.18725C8.28261 20.5693 7.54655 21.3052 7.54655 22.2099V34.9452H2.46094C1.10398 34.9452 0 36.0492 0 37.4062C0 38.7631 1.10398 39.8671 2.46094 39.8671H39.539C40.8959 39.8671 41.9999 38.7631 41.9999 37.4062V4.59375C41.9999 3.23679 40.8959 2.13281 39.539 2.13281ZM19.0309 19.1952H22.3123V34.9452H19.0309V19.1952ZM9.18725 22.2099H12.4685V34.9452H9.18717L9.18725 22.2099ZM40.3593 37.4062C40.3593 37.8585 39.9913 38.2265 39.539 38.2265H2.46094C2.00862 38.2265 1.64062 37.8585 1.64062 37.4062C1.64062 36.9538 2.00862 36.5859 2.46094 36.5859H37.8984C38.3513 36.5859 38.7187 36.2185 38.7187 35.7655V4.59375C38.7187 4.14143 39.0867 3.77344 39.539 3.77344C39.9913 3.77344 40.3593 4.14143 40.3593 4.59375V37.4062Z" fill="#4E74FF"/>
<path d="M28.0544 24.5991C28.5074 24.5991 28.8748 24.2317 28.8748 23.7787V23.7781C28.8748 23.3251 28.5074 22.9581 28.0544 22.9581C27.6015 22.9581 27.2341 23.3257 27.2341 23.7787C27.2341 24.2318 27.6015 24.5991 28.0544 24.5991V24.5991Z" fill="#4E74FF"/>
</svg>
